<svg width="24" height="25" viewBox="0 0 24 25" fill="none" xmlns="http://www.w3.org/2000/svg">
<path d="M2 8.70142V12.7024H3V18.7014H2V21.7014H18L21 21.7024V21.7014H22V18.7014H21V12.7024H22V8.70142L12 2.70142L2 8.70142ZM6 18.7014V12.7024H8V18.7014H6ZM11 18.7014V12.7024H13V18.7014H11ZM18 18.7014H16V12.7024H18V18.7014ZM14 8.70142C13.9999 8.96413 13.9481 9.22425 13.8475 9.46694C13.7469 9.70962 13.5995 9.93012 13.4137 10.1158C13.2279 10.3016 13.0073 10.4489 12.7646 10.5493C12.5219 10.6498 12.2617 10.7015 11.999 10.7014C11.7363 10.7014 11.4762 10.6495 11.2335 10.5489C10.9908 10.4484 10.7703 10.3009 10.5846 10.1151C10.3989 9.92932 10.2516 9.70875 10.1511 9.46601C10.0506 9.22328 9.99893 8.96313 9.999 8.70042C9.99913 8.16985 10.21 7.66107 10.5853 7.286C10.9605 6.91092 11.4694 6.70028 12 6.70042C12.5306 6.70055 13.0393 6.91144 13.4144 7.2867C13.7895 7.66196 14.0001 8.17085 14 8.70142Z" fill="#FC1055"/>
</svg>
