<svg width="24" height="24" viewBox="0 0 24 24" fill="none" xmlns="http://www.w3.org/2000/svg">
<path d="M12.043 6.92482C10.7228 6.92614 9.45703 7.45111 8.52341 8.38454C7.5898 9.31796 7.06458 10.5836 7.06299 11.9038C7.06199 12.8438 7.32599 13.7598 7.82399 14.5528L7.94199 14.7408L7.43899 16.5778L9.32399 16.0838L9.50499 16.1918C10.2725 16.6461 11.1481 16.8855 12.04 16.8848H12.041C13.3608 16.883 14.626 16.3579 15.5593 15.4248C16.4926 14.4917 17.0179 13.2266 17.02 11.9068C17.0223 11.2526 16.8948 10.6045 16.6448 9.99995C16.3949 9.39539 16.0275 8.84642 15.564 8.38482C15.1028 7.92067 14.5542 7.55262 13.9498 7.30201C13.3454 7.0514 12.6973 6.92319 12.043 6.92482ZM14.971 14.0428C14.846 14.3928 14.248 14.7108 13.961 14.7538C13.6464 14.8081 13.3234 14.7879 13.018 14.6948C12.7282 14.6051 12.4435 14.4999 12.165 14.3798C10.663 13.7318 9.68299 12.2208 9.60699 12.1198C9.53299 12.0198 8.99699 11.3078 8.99699 10.5718C8.99699 9.83482 9.38299 9.47282 9.51999 9.32282C9.57029 9.26598 9.63178 9.22013 9.7006 9.18813C9.76943 9.15612 9.84411 9.13866 9.91999 9.13682C10.02 9.13682 10.119 9.13782 10.207 9.14182C10.299 9.14582 10.422 9.10682 10.543 9.39882C10.668 9.69882 10.968 10.4348 11.005 10.5098C11.042 10.5838 11.067 10.6718 11.018 10.7718C10.968 10.8728 10.944 10.9338 10.868 11.0218C10.794 11.1098 10.711 11.2168 10.644 11.2848C10.569 11.3588 10.491 11.4398 10.578 11.5898C10.666 11.7388 10.966 12.2298 11.41 12.6268C11.982 13.1368 12.465 13.2938 12.614 13.3698C12.764 13.4438 12.851 13.4328 12.939 13.3318C13.026 13.2308 13.313 12.8948 13.413 12.7458C13.513 12.5958 13.612 12.6208 13.75 12.6698C13.887 12.7208 14.623 13.0818 14.772 13.1568C14.92 13.2308 15.021 13.2688 15.059 13.3318C15.095 13.3938 15.095 13.6928 14.971 14.0428Z" fill="#C1C5D0"/>
<path d="M20 3H4C3.73478 3 3.48043 3.10536 3.29289 3.29289C3.10536 3.48043 3 3.73478 3 4V20C3 20.2652 3.10536 20.5196 3.29289 20.7071C3.48043 20.8946 3.73478 21 4 21H20C20.2652 21 20.5196 20.8946 20.7071 20.7071C20.8946 20.5196 21 20.2652 21 20V4C21 3.73478 20.8946 3.48043 20.7071 3.29289C20.5196 3.10536 20.2652 3 20 3ZM12.04 17.896H12.038C11.0381 17.8961 10.054 17.6455 9.176 17.167L6 18L6.85 14.896C6.32498 13.9852 6.04886 12.9523 6.04938 11.9011C6.04989 10.8498 6.32702 9.81718 6.85294 8.90691C7.37885 7.99665 8.13502 7.2408 9.04551 6.71528C9.95599 6.18976 10.9887 5.91307 12.04 5.913C12.8275 5.91082 13.6077 6.06501 14.3352 6.36661C15.0626 6.66822 15.723 7.11124 16.278 7.67C16.8356 8.22535 17.2774 8.8858 17.578 9.61308C17.8785 10.3404 18.0318 11.1201 18.029 11.907C18.0266 13.4946 17.3949 15.0166 16.2722 16.1392C15.1496 17.2619 13.6277 17.8936 12.04 17.896Z" fill="#C1C5D0"/>
</svg>
