<svg width="34" height="30" viewBox="0 0 34 30" fill="none" xmlns="http://www.w3.org/2000/svg">
<path d="M30.2612 3.91505C29.495 3.14856 28.5854 2.54052 27.5842 2.12568C26.583 1.71084 25.5099 1.49731 24.4262 1.49731C23.3424 1.49731 22.2693 1.71084 21.2681 2.12568C20.2669 2.54052 19.3573 3.14856 18.5912 3.91505L17.0012 5.50505L15.4112 3.91505C13.8636 2.36751 11.7647 1.49812 9.57615 1.49812C7.38761 1.49812 5.28869 2.36751 3.74115 3.91505C2.19362 5.46259 1.32422 7.5615 1.32422 9.75005C1.32422 11.9386 2.19362 14.0375 3.74115 15.5851L5.33115 17.1751L17.0012 28.8451L28.6712 17.1751L30.2612 15.5851C31.0276 14.8189 31.6357 13.9093 32.0505 12.9081C32.4654 11.9069 32.6789 10.8338 32.6789 9.75005C32.6789 8.66632 32.4654 7.59321 32.0505 6.59202C31.6357 5.59083 31.0276 4.68119 30.2612 3.91505V3.91505Z" stroke="#3366FF" stroke-width="2" stroke-linecap="round" stroke-linejoin="round"/>
</svg>
