<svg width="24" height="25" viewBox="0 0 24 25" fill="none" xmlns="http://www.w3.org/2000/svg">
<path d="M11.8003 11.6014C9.53031 11.0114 8.80031 10.4014 8.80031 9.45142C8.80031 8.36142 9.81031 7.60142 11.5003 7.60142C13.2803 7.60142 13.9403 8.45142 14.0003 9.70142H16.2103C16.1403 7.98142 15.0903 6.40142 13.0003 5.89142V3.70142H10.0003V5.86142C8.06031 6.28142 6.50031 7.54142 6.50031 9.47142C6.50031 11.7814 8.41031 12.9314 11.2003 13.6014C13.7003 14.2014 14.2003 15.0814 14.2003 16.0114C14.2003 16.7014 13.7103 17.8014 11.5003 17.8014C9.44031 17.8014 8.63031 16.8814 8.52031 15.7014H6.32031C6.44031 17.8914 8.08031 19.1214 10.0003 19.5314V21.7014H13.0003V19.5514C14.9503 19.1814 16.5003 18.0514 16.5003 16.0014C16.5003 13.1614 14.0703 12.1914 11.8003 11.6014Z" fill="#3366FF"/>
</svg>
