<svg width="20" height="25" viewBox="0 0 20 25" fill="none" xmlns="http://www.w3.org/2000/svg">
<g clip-path="url(#clip0_457_77)">
<path d="M19.44 8.38132C19.44 8.42132 19.45 8.45132 19.47 8.47132C19.49 8.49132 19.49 8.52132 19.47 8.56132V9.16132C19.47 9.36132 19.4 9.53132 19.26 9.67132C19.12 9.81132 18.95 9.88132 18.75 9.88132H17.37V19.6013C17.37 19.8013 17.31 19.9613 17.19 20.0813C17.07 20.2013 16.9 20.2713 16.68 20.2913H2.79C2.59 20.2913 2.42 20.2213 2.28 20.0813C2.14 19.9413 2.07 19.7813 2.07 19.6013V9.88132H0.69C0.49 9.88132 0.33 9.81132 0.21 9.67132C0.09 9.53132 0.02 9.36132 0 9.16132V8.56132C0 8.48132 0.01 8.42132 0.03 8.38132L1.8 1.87132C1.9 1.55132 2.07 1.30132 2.31 1.12132C2.55 0.941318 2.83 0.851318 3.15 0.851318H16.32C16.64 0.851318 16.92 0.941318 17.16 1.12132C17.4 1.30132 17.56 1.55132 17.64 1.87132L19.44 8.38132ZM15.3 9.88132H4.17V13.6913C4.17 13.7913 4.21 13.8713 4.29 13.9313C4.37 13.9913 4.45 14.0313 4.53 14.0513H14.94C15.04 14.0513 15.13 14.0113 15.21 13.9313C15.29 13.8513 15.32 13.7713 15.3 13.6913V9.88132Z" fill="#FF8900"/>
</g>
<defs>
<clipPath id="clip0_457_77">
<rect width="19.5" height="24" fill="white" transform="translate(0 0.701416)"/>
</clipPath>
</defs>
</svg>
